<?xml version="1.0" encoding="utf-8"?>
<!-- Svg Vector Icons : http://www.onlinewebfonts.com/icon -->
<!DOCTYPE svg PUBLIC "-//W3C//DTD SVG 1.1//EN" "http://www.w3.org/Graphics/SVG/1.1/DTD/svg11.dtd">
<svg version="1.1" xmlns="http://www.w3.org/2000/svg" xmlns:xlink="http://www.w3.org/1999/xlink" x="0px" y="0px" viewBox="0 0 1000 1000" enable-background="new 0 0 1000 1000" xml:space="preserve">
<metadata> Svg Vector Icons : http://www.onlinewebfonts.com/icon </metadata>
<g><g transform="translate(0.000000,511.000000) scale(0.100000,-0.100000)"><path d="M2643.8,2991L299,970l76.3-90.7c41.2-49.5,80.4-90.7,86.6-90.7s111.4,88.7,237.2,195.9c123.7,107.2,226.9,191.8,231,189.7c2.1-4.1,278.4-1161.1,614.6-2571.7c336.2-1412.7,653.7-2753.2,707.4-2980l99-412.5h2753.2h2751.1l637.3,2949.1c350.6,1623,641.4,2953.2,643.4,2955.2c2.1,4.1,90.7-63.9,193.9-154.7c103.1-88.7,193.9-160.8,202.1-160.8c8.3,0,49.5,37.1,92.8,84.6l76.3,84.6l-2344.8,2019C6067.2,4096.4,5007.2,5007.9,5001,5010C4994.8,5012.1,3932.8,4102.6,2643.8,2991z M5514.6,2089.8c913.6-231,1567.3-1074.5,1567.3-2023.1c0-1146.7-936.3-2082.9-2082.9-2082.9c-1031.1,0-1897.3,746.6-2062.3,1779.8c-35.1,210.4-16.5,593.9,41.2,818.7c140.2,565.1,552.7,1080.6,1072.4,1340.5c210.4,103.1,307.3,138.2,525.9,185.6C4823.7,2162,5256.8,2153.7,5514.6,2089.8z M5157.8-2863.8c140.3-51.6,253.7-224.8,253.7-383.6c-2.1-441.3-583.6-581.6-785.7-187.7c-41.2,82.5-51.6,247.5-20.6,332c28.9,76.3,148.5,202.1,218.6,233C4900-2837,5077.3-2832.9,5157.8-2863.8z"/></g></g>
</svg>